STARTFONT 2.1
COMMENT Recovered from arc.ast's:HL8B AST (MIT CADR AST source recovered from ARC!!!)
FONT MIT-CADR-HL8B
SIZE 11 72 72
FONTBOUNDINGBOX 16 11 0 -3
STARTPROPERTIES 2
FONT_ASCENT 8
FONT_DESCENT 3
ENDPROPERTIES
CHARS 95
STARTCHAR C0018
ENCODING -1 24
SWIDTH 0 0
DWIDTH 0 0
BBX 16 11 0 -3
BITMAP
0000
0000
0000
0000
0000
0000
0000
0000
0000
FFE0
0000
ENDCHAR
STARTCHAR C0020
ENCODING -1 32
SWIDTH 364 0
DWIDTH 4 0
BBX 16 11 0 -3
BITMAP
0000
0000
0000
0000
0000
0000
0000
0000
0000
0000
0000
ENDCHAR
STARTCHAR C0021
ENCODING -1 33
SWIDTH 364 0
DWIDTH 4 0
BBX 16 11 0 -3
BITMAP
0000
6000
6000
6000
6000
0000
6000
6000
0000
0000
0000
ENDCHAR
STARTCHAR C0022
ENCODING -1 34
SWIDTH 636 0
DWIDTH 7 0
BBX 16 11 0 -3
BITMAP
0000
6C00
6C00
6C00
0000
0000
0000
0000
0000
0000
0000
ENDCHAR
STARTCHAR C0023
ENCODING -1 35
SWIDTH 818 0
DWIDTH 9 0
BBX 16 11 0 -3
BITMAP
0000
0A00
0A00
3F00
1400
7E00
2800
2800
0000
0000
0000
ENDCHAR
STARTCHAR C0024
ENCODING -1 36
SWIDTH 818 0
DWIDTH 9 0
BBX 16 11 0 -3
BITMAP
0800
3E00
6B00
7800
3E00
0F00
6B00
3E00
0800
0000
0000
ENDCHAR
STARTCHAR C0025
ENCODING -1 37
SWIDTH 1182 0
DWIDTH 13 0
BBX 16 11 0 -3
BITMAP
0000
3900
6D00
6E00
3AE0
03B0
05B0
04E0
0000
0000
0000
ENDCHAR
STARTCHAR C0026
ENCODING -1 38
SWIDTH 818 0
DWIDTH 9 0
BBX 16 11 0 -3
BITMAP
0000
1800
3400
3400
3900
6F00
6400
3F00
0000
0000
0000
ENDCHAR
STARTCHAR C0027
ENCODING -1 39
SWIDTH 364 0
DWIDTH 4 0
BBX 16 11 0 -3
BITMAP
0000
6000
6000
6000
0000
0000
0000
0000
0000
0000
0000
ENDCHAR
STARTCHAR C0028
ENCODING -1 40
SWIDTH 545 0
DWIDTH 6 0
BBX 16 11 0 -3
BITMAP
0000
1800
3000
2000
6000
6000
6000
6000
2000
3000
1800
ENDCHAR
STARTCHAR C0029
ENCODING -1 41
SWIDTH 545 0
DWIDTH 6 0
BBX 16 11 0 -3
BITMAP
0000
6000
3000
1000
1800
1800
1800
1800
1000
3000
6000
ENDCHAR
STARTCHAR C002A
ENCODING -1 42
SWIDTH 636 0
DWIDTH 7 0
BBX 16 11 0 -3
BITMAP
1000
5400
3800
5400
1000
0000
0000
0000
0000
0000
0000
ENDCHAR
STARTCHAR C002B
ENCODING -1 43
SWIDTH 727 0
DWIDTH 8 0
BBX 16 11 0 -3
BITMAP
0000
0000
1800
1800
7E00
7E00
1800
1800
0000
0000
0000
ENDCHAR
STARTCHAR C002C
ENCODING -1 44
SWIDTH 364 0
DWIDTH 4 0
BBX 16 11 0 -3
BITMAP
0000
0000
0000
0000
0000
0000
6000
6000
2000
2000
4000
ENDCHAR
STARTCHAR C002D
ENCODING -1 45
SWIDTH 545 0
DWIDTH 6 0
BBX 16 11 0 -3
BITMAP
0000
0000
0000
0000
7800
7800
0000
0000
0000
0000
0000
ENDCHAR
STARTCHAR C002E
ENCODING -1 46
SWIDTH 364 0
DWIDTH 4 0
BBX 16 11 0 -3
BITMAP
0000
0000
0000
0000
0000
0000
6000
6000
0000
0000
0000
ENDCHAR
STARTCHAR C002F
ENCODING -1 47
SWIDTH 636 0
DWIDTH 7 0
BBX 16 11 0 -3
BITMAP
0000
0C00
0C00
1800
1800
3000
3000
6000
6000
0000
0000
ENDCHAR
STARTCHAR C0030
ENCODING -1 48
SWIDTH 636 0
DWIDTH 7 0
BBX 16 11 0 -3
BITMAP
0000
3800
6C00
6C00
6C00
6C00
6C00
3800
0000
0000
0000
ENDCHAR
STARTCHAR C0031
ENCODING -1 49
SWIDTH 636 0
DWIDTH 7 0
BBX 16 11 0 -3
BITMAP
0000
1800
3800
7800
1800
1800
1800
1800
0000
0000
0000
ENDCHAR
STARTCHAR C0032
ENCODING -1 50
SWIDTH 636 0
DWIDTH 7 0
BBX 16 11 0 -3
BITMAP
0000
3800
6C00
0C00
1800
3000
6000
7C00
0000
0000
0000
ENDCHAR
STARTCHAR C0033
ENCODING -1 51
SWIDTH 636 0
DWIDTH 7 0
BBX 16 11 0 -3
BITMAP
0000
3800
6C00
0C00
3800
0C00
6C00
3800
0000
0000
0000
ENDCHAR
STARTCHAR C0034
ENCODING -1 52
SWIDTH 636 0
DWIDTH 7 0
BBX 16 11 0 -3
BITMAP
0000
1C00
3C00
2C00
6C00
7E00
0C00
0C00
0000
0000
0000
ENDCHAR
STARTCHAR C0035
ENCODING -1 53
SWIDTH 636 0
DWIDTH 7 0
BBX 16 11 0 -3
BITMAP
0000
3C00
3000
7800
6C00
0C00
6C00
3800
0000
0000
0000
ENDCHAR
STARTCHAR C0036
ENCODING -1 54
SWIDTH 636 0
DWIDTH 7 0
BBX 16 11 0 -3
BITMAP
0000
3800
6000
7800
6C00
6C00
6C00
3800
0000
0000
0000
ENDCHAR
STARTCHAR C0037
ENCODING -1 55
SWIDTH 636 0
DWIDTH 7 0
BBX 16 11 0 -3
BITMAP
0000
7C00
0C00
1800
1800
3000
3000
3000
0000
0000
0000
ENDCHAR
STARTCHAR C0038
ENCODING -1 56
SWIDTH 636 0
DWIDTH 7 0
BBX 16 11 0 -3
BITMAP
0000
3800
6C00
6C00
3800
6C00
6C00
3800
0000
0000
0000
ENDCHAR
STARTCHAR C0039
ENCODING -1 57
SWIDTH 636 0
DWIDTH 7 0
BBX 16 11 0 -3
BITMAP
0000
3800
6C00
6C00
6C00
3C00
0C00
7800
0000
0000
0000
ENDCHAR
STARTCHAR C003A
ENCODING -1 58
SWIDTH 364 0
DWIDTH 4 0
BBX 16 11 0 -3
BITMAP
0000
0000
0000
6000
6000
0000
6000
6000
0000
0000
0000
ENDCHAR
STARTCHAR C003B
ENCODING -1 59
SWIDTH 364 0
DWIDTH 4 0
BBX 16 11 0 -3
BITMAP
0000
0000
0000
6000
6000
0000
6000
6000
2000
2000
4000
ENDCHAR
STARTCHAR C003C
ENCODING -1 60
SWIDTH 636 0
DWIDTH 7 0
BBX 16 11 0 -3
BITMAP
0000
0C00
1800
3000
6000
3000
1800
0C00
0000
0000
0000
ENDCHAR
STARTCHAR C003D
ENCODING -1 61
SWIDTH 545 0
DWIDTH 6 0
BBX 16 11 0 -3
BITMAP
0000
0000
7800
7800
0000
7800
7800
0000
0000
0000
0000
ENDCHAR
STARTCHAR C003E
ENCODING -1 62
SWIDTH 636 0
DWIDTH 7 0
BBX 16 11 0 -3
BITMAP
0000
6000
3000
1800
0C00
1800
3000
6000
0000
0000
0000
ENDCHAR
STARTCHAR C003F
ENCODING -1 63
SWIDTH 636 0
DWIDTH 7 0
BBX 16 11 0 -3
BITMAP
0000
3800
6C00
4C00
1800
0000
1800
1800
0000
0000
0000
ENDCHAR
STARTCHAR C0040
ENCODING -1 64
SWIDTH 1000 0
DWIDTH 11 0
BBX 16 11 0 -3
BITMAP
0000
1F00
2080
4E40
5B40
5B40
4D80
2000
1F80
0000
0000
ENDCHAR
STARTCHAR C0041
ENCODING -1 65
SWIDTH 727 0
DWIDTH 8 0
BBX 16 11 0 -3
BITMAP
0000
1000
3800
3800
6C00
6C00
FE00
C600
0000
0000
0000
ENDCHAR
STARTCHAR C0042
ENCODING -1 66
SWIDTH 636 0
DWIDTH 7 0
BBX 16 11 0 -3
BITMAP
0000
F800
CC00
CC00
F800
CC00
CC00
F800
0000
0000
0000
ENDCHAR
STARTCHAR C0043
ENCODING -1 67
SWIDTH 636 0
DWIDTH 7 0
BBX 16 11 0 -3
BITMAP
0000
7800
CC00
C000
C000
C000
CC00
7800
0000
0000
0000
ENDCHAR
STARTCHAR C0044
ENCODING -1 68
SWIDTH 636 0
DWIDTH 7 0
BBX 16 11 0 -3
BITMAP
0000
F800
CC00
CC00
CC00
CC00
CC00
F800
0000
0000
0000
ENDCHAR
STARTCHAR C0045
ENCODING -1 69
SWIDTH 545 0
DWIDTH 6 0
BBX 16 11 0 -3
BITMAP
0000
F800
C000
C000
F000
C000
C000
F800
0000
0000
0000
ENDCHAR
STARTCHAR C0046
ENCODING -1 70
SWIDTH 545 0
DWIDTH 6 0
BBX 16 11 0 -3
BITMAP
0000
F800
C000
C000
F000
C000
C000
C000
0000
0000
0000
ENDCHAR
STARTCHAR C0047
ENCODING -1 71
SWIDTH 636 0
DWIDTH 7 0
BBX 16 11 0 -3
BITMAP
0000
7800
CC00
C000
DC00
CC00
DC00
6C00
0000
0000
0000
ENDCHAR
STARTCHAR C0048
ENCODING -1 72
SWIDTH 636 0
DWIDTH 7 0
BBX 16 11 0 -3
BITMAP
0000
CC00
CC00
CC00
FC00
CC00
CC00
CC00
0000
0000
0000
ENDCHAR
STARTCHAR C0049
ENCODING -1 73
SWIDTH 273 0
DWIDTH 3 0
BBX 16 11 0 -3
BITMAP
0000
C000
C000
C000
C000
C000
C000
C000
0000
0000
0000
ENDCHAR
STARTCHAR C004A
ENCODING -1 74
SWIDTH 545 0
DWIDTH 6 0
BBX 16 11 0 -3
BITMAP
0000
1800
1800
1800
1800
D800
D800
7000
0000
0000
0000
ENDCHAR
STARTCHAR C004B
ENCODING -1 75
SWIDTH 727 0
DWIDTH 8 0
BBX 16 11 0 -3
BITMAP
0000
CC00
D800
F000
F000
D800
CC00
C600
0000
0000
0000
ENDCHAR
STARTCHAR C004C
ENCODING -1 76
SWIDTH 545 0
DWIDTH 6 0
BBX 16 11 0 -3
BITMAP
0000
C000
C000
C000
C000
C000
C000
F800
0000
0000
0000
ENDCHAR
STARTCHAR C004D
ENCODING -1 77
SWIDTH 909 0
DWIDTH 10 0
BBX 16 11 0 -3
BITMAP
0000
E380
E380
F780
D580
DD80
DD80
C980
0000
0000
0000
ENDCHAR
STARTCHAR C004E
ENCODING -1 78
SWIDTH 727 0
DWIDTH 8 0
BBX 16 11 0 -3
BITMAP
0000
E600
E600
F600
F600
DE00
DE00
CE00
0000
0000
0000
ENDCHAR
STARTCHAR C004F
ENCODING -1 79
SWIDTH 636 0
DWIDTH 7 0
BBX 16 11 0 -3
BITMAP
0000
7800
CC00
CC00
CC00
CC00
CC00
7800
0000
0000
0000
ENDCHAR
STARTCHAR C0050
ENCODING -1 80
SWIDTH 636 0
DWIDTH 7 0
BBX 16 11 0 -3
BITMAP
0000
F800
CC00
CC00
CC00
F800
C000
C000
0000
0000
0000
ENDCHAR
STARTCHAR C0051
ENCODING -1 81
SWIDTH 636 0
DWIDTH 7 0
BBX 16 11 0 -3
BITMAP
0000
7800
CC00
CC00
CC00
CC00
CC00
7800
1800
0C00
0000
ENDCHAR
STARTCHAR C0052
ENCODING -1 82
SWIDTH 636 0
DWIDTH 7 0
BBX 16 11 0 -3
BITMAP
0000
F800
CC00
CC00
F800
CC00
CC00
CC00
0000
0000
0000
ENDCHAR
STARTCHAR C0053
ENCODING -1 83
SWIDTH 545 0
DWIDTH 6 0
BBX 16 11 0 -3
BITMAP
0000
7000
C800
E000
7000
3800
9800
7000
0000
0000
0000
ENDCHAR
STARTCHAR C0054
ENCODING -1 84
SWIDTH 636 0
DWIDTH 7 0
BBX 16 11 0 -3
BITMAP
0000
FC00
3000
3000
3000
3000
3000
3000
0000
0000
0000
ENDCHAR
STARTCHAR C0055
ENCODING -1 85
SWIDTH 636 0
DWIDTH 7 0
BBX 16 11 0 -3
BITMAP
0000
CC00
CC00
CC00
CC00
CC00
CC00
7800
0000
0000
0000
ENDCHAR
STARTCHAR C0056
ENCODING -1 86
SWIDTH 727 0
DWIDTH 8 0
BBX 16 11 0 -3
BITMAP
0000
C600
C600
6C00
6C00
2800
3800
1000
0000
0000
0000
ENDCHAR
STARTCHAR C0057
ENCODING -1 87
SWIDTH 1000 0
DWIDTH 11 0
BBX 16 11 0 -3
BITMAP
0000
CCC0
CCC0
6D80
6D80
7F80
3300
3300
0000
0000
0000
ENDCHAR
STARTCHAR C0058
ENCODING -1 88
SWIDTH 636 0
DWIDTH 7 0
BBX 16 11 0 -3
BITMAP
0000
CC00
7800
3000
3000
7800
CC00
CC00
0000
0000
0000
ENDCHAR
STARTCHAR C0059
ENCODING -1 89
SWIDTH 636 0
DWIDTH 7 0
BBX 16 11 0 -3
BITMAP
0000
CC00
CC00
4800
7800
3000
3000
3000
0000
0000
0000
ENDCHAR
STARTCHAR C005A
ENCODING -1 90
SWIDTH 636 0
DWIDTH 7 0
BBX 16 11 0 -3
BITMAP
0000
FC00
0C00
1800
3000
6000
C000
FC00
0000
0000
0000
ENDCHAR
STARTCHAR C005B
ENCODING -1 91
SWIDTH 545 0
DWIDTH 6 0
BBX 16 11 0 -3
BITMAP
0000
7800
6000
6000
6000
6000
6000
6000
6000
6000
7800
ENDCHAR
STARTCHAR C005C
ENCODING -1 92
SWIDTH 636 0
DWIDTH 7 0
BBX 16 11 0 -3
BITMAP
0000
6000
6000
3000
3000
1800
1800
0C00
0C00
0000
0000
ENDCHAR
STARTCHAR C005D
ENCODING -1 93
SWIDTH 545 0
DWIDTH 6 0
BBX 16 11 0 -3
BITMAP
0000
7800
1800
1800
1800
1800
1800
1800
1800
1800
7800
ENDCHAR
STARTCHAR C005E
ENCODING -1 94
SWIDTH 727 0
DWIDTH 8 0
BBX 16 11 0 -3
BITMAP
0000
1800
3C00
7E00
5A00
1800
1800
1800
0000
0000
0000
ENDCHAR
STARTCHAR C005F
ENCODING -1 95
SWIDTH 818 0
DWIDTH 9 0
BBX 16 11 0 -3
BITMAP
0000
0000
1800
3000
7F00
7F00
3000
1800
0000
0000
0000
ENDCHAR
STARTCHAR C0061
ENCODING -1 97
SWIDTH 545 0
DWIDTH 6 0
BBX 16 11 0 -3
BITMAP
0000
0000
0000
7000
1800
F800
D800
F800
0000
0000
0000
ENDCHAR
STARTCHAR C0062
ENCODING -1 98
SWIDTH 545 0
DWIDTH 6 0
BBX 16 11 0 -3
BITMAP
0000
C000
C000
F000
D800
D800
D800
F000
0000
0000
0000
ENDCHAR
STARTCHAR C0063
ENCODING -1 99
SWIDTH 545 0
DWIDTH 6 0
BBX 16 11 0 -3
BITMAP
0000
0000
0000
7000
D800
C000
D800
7000
0000
0000
0000
ENDCHAR
STARTCHAR C0064
ENCODING -1 100
SWIDTH 545 0
DWIDTH 6 0
BBX 16 11 0 -3
BITMAP
0000
1800
1800
7800
D800
D800
D800
7800
0000
0000
0000
ENDCHAR
STARTCHAR C0065
ENCODING -1 101
SWIDTH 545 0
DWIDTH 6 0
BBX 16 11 0 -3
BITMAP
0000
0000
0000
7000
D800
F800
C000
7800
0000
0000
0000
ENDCHAR
STARTCHAR C0066
ENCODING -1 102
SWIDTH 545 0
DWIDTH 6 0
BBX 16 11 0 -3
BITMAP
0000
3800
6000
F800
6000
6000
6000
6000
0000
0000
0000
ENDCHAR
STARTCHAR C0067
ENCODING -1 103
SWIDTH 545 0
DWIDTH 6 0
BBX 16 11 0 -3
BITMAP
0000
0000
0000
7800
D800
D800
D800
7800
1800
D800
7000
ENDCHAR
STARTCHAR C0068
ENCODING -1 104
SWIDTH 545 0
DWIDTH 6 0
BBX 16 11 0 -3
BITMAP
0000
C000
C000
F000
D800
D800
D800
D800
0000
0000
0000
ENDCHAR
STARTCHAR C0069
ENCODING -1 105
SWIDTH 273 0
DWIDTH 3 0
BBX 16 11 0 -3
BITMAP
C000
C000
0000
C000
C000
C000
C000
C000
0000
0000
0000
ENDCHAR
STARTCHAR C006A
ENCODING -1 106
SWIDTH 364 0
DWIDTH 4 0
BBX 16 11 0 -3
BITMAP
6000
6000
0000
6000
6000
6000
6000
6000
6000
C000
0000
ENDCHAR
STARTCHAR C006B
ENCODING -1 107
SWIDTH 636 0
DWIDTH 7 0
BBX 16 11 0 -3
BITMAP
0000
C000
C000
D800
F000
F000
D800
CC00
0000
0000
0000
ENDCHAR
STARTCHAR C006C
ENCODING -1 108
SWIDTH 273 0
DWIDTH 3 0
BBX 16 11 0 -3
BITMAP
0000
C000
C000
C000
C000
C000
C000
C000
0000
0000
0000
ENDCHAR
STARTCHAR C006D
ENCODING -1 109
SWIDTH 818 0
DWIDTH 9 0
BBX 16 11 0 -3
BITMAP
0000
0000
0000
EE00
DB00
DB00
DB00
DB00
0000
0000
0000
ENDCHAR
STARTCHAR C006E
ENCODING -1 110
SWIDTH 545 0
DWIDTH 6 0
BBX 16 11 0 -3
BITMAP
0000
0000
0000
F000
D800
D800
D800
D800
0000
0000
0000
ENDCHAR
STARTCHAR C006F
ENCODING -1 111
SWIDTH 545 0
DWIDTH 6 0
BBX 16 11 0 -3
BITMAP
0000
0000
0000
7000
D800
D800
D800
7000
0000
0000
0000
ENDCHAR
STARTCHAR C0070
ENCODING -1 112
SWIDTH 545 0
DWIDTH 6 0
BBX 16 11 0 -3
BITMAP
0000
0000
0000
F000
D800
D800
D800
F000
C000
C000
0000
ENDCHAR
STARTCHAR C0071
ENCODING -1 113
SWIDTH 545 0
DWIDTH 6 0
BBX 16 11 0 -3
BITMAP
0000
0000
0000
7800
D800
D800
D800
7800
1800
1800
0000
ENDCHAR
STARTCHAR C0072
ENCODING -1 114
SWIDTH 545 0
DWIDTH 6 0
BBX 16 11 0 -3
BITMAP
0000
0000
0000
F800
D800
C000
C000
C000
0000
0000
0000
ENDCHAR
STARTCHAR C0073
ENCODING -1 115
SWIDTH 455 0
DWIDTH 5 0
BBX 16 11 0 -3
BITMAP
0000
0000
0000
7000
C000
F000
3000
E000
0000
0000
0000
ENDCHAR
STARTCHAR C0074
ENCODING -1 116
SWIDTH 545 0
DWIDTH 6 0
BBX 16 11 0 -3
BITMAP
0000
0000
6000
F800
6000
6000
6000
3800
0000
0000
0000
ENDCHAR
STARTCHAR C0075
ENCODING -1 117
SWIDTH 545 0
DWIDTH 6 0
BBX 16 11 0 -3
BITMAP
0000
0000
0000
D800
D800
D800
D800
7800
0000
0000
0000
ENDCHAR
STARTCHAR C0076
ENCODING -1 118
SWIDTH 636 0
DWIDTH 7 0
BBX 16 11 0 -3
BITMAP
0000
0000
0000
CC00
CC00
7800
7800
3000
0000
0000
0000
ENDCHAR
STARTCHAR C0077
ENCODING -1 119
SWIDTH 818 0
DWIDTH 9 0
BBX 16 11 0 -3
BITMAP
0000
0000
0000
DB00
DB00
7E00
7E00
2400
0000
0000
0000
ENDCHAR
STARTCHAR C0078
ENCODING -1 120
SWIDTH 636 0
DWIDTH 7 0
BBX 16 11 0 -3
BITMAP
0000
0000
0000
CC00
7800
3000
7800
CC00
0000
0000
0000
ENDCHAR
STARTCHAR C0079
ENCODING -1 121
SWIDTH 636 0
DWIDTH 7 0
BBX 16 11 0 -3
BITMAP
0000
0000
0000
CC00
C800
7800
3000
3000
B000
6000
0000
ENDCHAR
STARTCHAR C007A
ENCODING -1 122
SWIDTH 455 0
DWIDTH 5 0
BBX 16 11 0 -3
BITMAP
0000
0000
0000
F000
3000
6000
C000
F000
0000
0000
0000
ENDCHAR
STARTCHAR C007B
ENCODING -1 123
SWIDTH 727 0
DWIDTH 8 0
BBX 16 11 0 -3
BITMAP
0000
0E00
1800
1800
1800
7000
1800
1800
1800
1800
0E00
ENDCHAR
STARTCHAR C007C
ENCODING -1 124
SWIDTH 364 0
DWIDTH 4 0
BBX 16 11 0 -3
BITMAP
0000
6000
6000
6000
6000
6000
6000
6000
6000
6000
6000
ENDCHAR
STARTCHAR C007D
ENCODING -1 125
SWIDTH 727 0
DWIDTH 8 0
BBX 16 11 0 -3
BITMAP
0000
7000
1800
1800
1800
0E00
1800
1800
1800
1800
7000
ENDCHAR
STARTCHAR C007E
ENCODING -1 126
SWIDTH 818 0
DWIDTH 9 0
BBX 16 11 0 -3
BITMAP
0000
0000
0000
3300
7F00
6600
0000
0000
0000
0000
0000
ENDCHAR
ENDFONT
